# xmcd CD database file generated by Grip 3.2.0
# 
# Track frame offsets:
#       150
#       10460
#       25691
#       48741
#       70666
#       89410
#       102357
#       120332
#       137293
#       153355
#       166773
# 
# Disc length: 2428 seconds
# 
# Revision: 1
# Processed by: cddbd v1.5.1PL2 Copyright (c) Steve Scherf et al.
# Submitted via: Grip 3.2.0
# 
DISCID=7f097a0b
DTITLE=Alison Wood - At Arm's Length
DYEAR=2006
DGENRE=Blues
TTITLE0=Goodnight, L.A.
TTITLE1=Sorry
TTITLE2=I'm Okay
TTITLE3=Crayola
TTITLE4=Writing on the Wall
TTITLE5=Lost
TTITLE6=Fourth of July
TTITLE7=The View from the Edge
TTITLE8=Close By
TTITLE9=Better Off Alone
TTITLE10=Zero Sum Gain
EXTD=
EXTT0=
EXTT1=
EXTT2=
EXTT3=
EXTT4=
EXTT5=
EXTT6=
EXTT7=
EXTT8=
EXTT9=
EXTT10=
PLAYORDER=
